<svg xmlns="http://www.w3.org/2000/svg" viewBox="0 0 512 512">
  <defs>
    <linearGradient id="bg" x1="80" y1="60" x2="430" y2="450" gradientUnits="userSpaceOnUse">
      <stop stop-color="#12c96a"/>
      <stop offset="0.55" stop-color="#0bb3e8"/>
      <stop offset="1" stop-color="#ffca2f"/>
    </linearGradient>
    <linearGradient id="leaf" x1="136" y1="172" x2="380" y2="340" gradientUnits="userSpaceOnUse">
      <stop stop-color="#f3fff5"/>
      <stop offset="1" stop-color="#c9ffd4"/>
    </linearGradient>
  </defs>
  <rect width="512" height="512" rx="112" fill="url(#bg)"/>
  <path d="M130 350c72-8 172-56 238-178 8-15 30-9 30 8 0 107-72 198-178 218-47 9-84-10-90-48Z" fill="url(#leaf)"/>
  <path d="M152 356c72-40 134-82 205-165" fill="none" stroke="#087642" stroke-width="22" stroke-linecap="round"/>
  <path d="M196 306c-18-38-18-75 1-112 38 18 61 45 71 82" fill="none" stroke="#087642" stroke-width="18" stroke-linecap="round"/>
  <path d="M282 254c-4-39 9-72 40-100 25 31 33 64 22 98" fill="none" stroke="#087642" stroke-width="18" stroke-linecap="round"/>
  <circle cx="152" cy="158" r="34" fill="#ff5d3a"/>
  <circle cx="206" cy="132" r="26" fill="#ffca2f"/>
  <path d="M128 408h256" stroke="#ffffff" stroke-width="28" stroke-linecap="round" opacity="0.86"/>
</svg>
